<svg xmlns="http://www.w3.org/2000/svg" xmlns:xlink="http://www.w3.org/1999/xlink" width="500" zoomAndPan="magnify" viewBox="0 0 375 374.999991" height="500" preserveAspectRatio="xMidYMid meet" version="1.0"><defs><clipPath id="1ba51b4001"><path d="M 2 187 L 81 187 L 81 317.8125 L 2 317.8125 Z M 2 187 " clip-rule="nonzero"/></clipPath><clipPath id="e5539d76ae"><path d="M 209 57 L 372 57 L 372 317.8125 L 209 317.8125 Z M 209 57 " clip-rule="nonzero"/></clipPath><clipPath id="2eb84122e8"><path d="M 69 57 L 233 57 L 233 317.8125 L 69 317.8125 Z M 69 57 " clip-rule="nonzero"/></clipPath></defs><g clip-path="url(#1ba51b4001)"><path fill="#ffffff" d="M 8.375 273.121094 L 38.648438 317.792969 L 43.25 317.792969 L 74.316406 273.695312 C 75.394531 272.164062 76.351562 270.5625 77.183594 268.886719 C 78.015625 267.210938 78.714844 265.476562 79.28125 263.695312 C 79.847656 261.910156 80.273438 260.09375 80.558594 258.242188 C 80.847656 256.394531 80.988281 254.53125 80.988281 252.660156 C 80.988281 250.789062 80.847656 248.925781 80.558594 247.078125 C 80.273438 245.226562 79.847656 243.410156 79.28125 241.625 C 78.714844 239.839844 78.015625 238.109375 77.183594 236.433594 C 76.351562 234.757812 75.394531 233.152344 74.316406 231.625 L 43.25 187.527344 L 38.730469 187.527344 L 8.457031 232.144531 C 7.429688 233.640625 6.515625 235.207031 5.722656 236.84375 C 4.925781 238.480469 4.257812 240.164062 3.71875 241.898438 C 3.179688 243.632812 2.769531 245.402344 2.496094 247.199219 C 2.21875 248.996094 2.078125 250.800781 2.074219 252.621094 C 2.070312 254.4375 2.203125 256.246094 2.472656 258.042969 C 2.742188 259.839844 3.140625 261.609375 3.675781 263.347656 C 4.210938 265.082031 4.871094 266.773438 5.660156 268.410156 C 6.445312 270.046875 7.351562 271.617188 8.375 273.121094 Z M 8.375 273.121094 " fill-opacity="1" fill-rule="nonzero"/></g><g clip-path="url(#e5539d76ae)"><path fill="#ffffff" d="M 333.203125 317.792969 L 337.691406 317.792969 L 361.917969 283.523438 C 362.703125 282.398438 363.449219 281.25 364.148438 280.070312 C 364.847656 278.890625 365.503906 277.6875 366.113281 276.457031 C 366.71875 275.230469 367.28125 273.980469 367.792969 272.707031 C 368.304688 271.433594 368.765625 270.144531 369.179688 268.835938 C 369.59375 267.53125 369.957031 266.207031 370.269531 264.875 C 370.582031 263.539062 370.839844 262.191406 371.050781 260.835938 C 371.261719 259.480469 371.417969 258.121094 371.523438 256.753906 C 371.625 255.386719 371.679688 254.015625 371.679688 252.644531 C 371.679688 251.273438 371.625 249.90625 371.523438 248.539062 C 371.417969 247.171875 371.261719 245.808594 371.050781 244.453125 C 370.839844 243.097656 370.582031 241.753906 370.269531 240.417969 C 369.957031 239.082031 369.59375 237.761719 369.179688 236.453125 C 368.765625 235.148438 368.304688 233.855469 367.792969 232.585938 C 367.28125 231.3125 366.71875 230.0625 366.113281 228.832031 C 365.503906 227.605469 364.847656 226.402344 364.148438 225.222656 C 363.449219 224.042969 362.703125 222.890625 361.917969 221.769531 L 246.296875 57.34375 L 241.777344 57.34375 L 218.265625 92.027344 C 217.519531 93.140625 216.8125 94.28125 216.148438 95.445312 C 215.484375 96.613281 214.867188 97.804688 214.292969 99.015625 C 213.71875 100.230469 213.1875 101.460938 212.707031 102.714844 C 212.222656 103.964844 211.789062 105.234375 211.402344 106.519531 C 211.011719 107.804688 210.675781 109.101562 210.382812 110.410156 C 210.09375 111.722656 209.851562 113.039062 209.660156 114.367188 C 209.464844 115.695312 209.324219 117.03125 209.230469 118.371094 C 209.136719 119.707031 209.09375 121.050781 209.101562 122.390625 C 209.109375 123.734375 209.167969 125.074219 209.273438 126.410156 C 209.382812 127.75 209.539062 129.082031 209.746094 130.40625 C 209.953125 131.730469 210.207031 133.046875 210.511719 134.355469 C 210.816406 135.664062 211.171875 136.957031 211.574219 138.238281 C 211.976562 139.515625 212.421875 140.78125 212.917969 142.027344 C 213.414062 143.273438 213.957031 144.5 214.546875 145.707031 C 215.132812 146.914062 215.765625 148.097656 216.441406 149.257812 C 217.117188 150.417969 217.835938 151.550781 218.59375 152.65625 Z M 333.203125 317.792969 " fill-opacity="1" fill-rule="nonzero"/></g><g clip-path="url(#2eb84122e8)"><path fill="#ffffff" d="M 193.605469 317.792969 L 198.09375 317.792969 L 222.316406 283.523438 C 223.105469 282.398438 223.851562 281.25 224.550781 280.070312 C 225.25 278.890625 225.90625 277.6875 226.511719 276.457031 C 227.121094 275.230469 227.679688 273.980469 228.191406 272.707031 C 228.707031 271.433594 229.167969 270.144531 229.582031 268.835938 C 229.996094 267.53125 230.359375 266.207031 230.671875 264.875 C 230.980469 263.539062 231.242188 262.191406 231.453125 260.835938 C 231.660156 259.480469 231.816406 258.121094 231.921875 256.753906 C 232.027344 255.386719 232.082031 254.015625 232.082031 252.644531 C 232.082031 251.273438 232.027344 249.90625 231.921875 248.539062 C 231.816406 247.171875 231.660156 245.808594 231.453125 244.453125 C 231.242188 243.097656 230.980469 241.753906 230.671875 240.417969 C 230.359375 239.082031 229.996094 237.761719 229.582031 236.453125 C 229.167969 235.148438 228.707031 233.855469 228.191406 232.585938 C 227.679688 231.3125 227.121094 230.0625 226.511719 228.832031 C 225.90625 227.605469 225.25 226.402344 224.550781 225.222656 C 223.851562 224.042969 223.105469 222.890625 222.316406 221.769531 L 106.695312 57.34375 L 102.179688 57.34375 L 78.667969 92.027344 C 77.917969 93.140625 77.214844 94.28125 76.550781 95.445312 C 75.886719 96.613281 75.269531 97.804688 74.695312 99.015625 C 74.117188 100.230469 73.589844 101.460938 73.109375 102.714844 C 72.625 103.964844 72.191406 105.234375 71.804688 106.519531 C 71.414062 107.804688 71.074219 109.101562 70.785156 110.410156 C 70.492188 111.722656 70.253906 113.039062 70.058594 114.367188 C 69.867188 115.695312 69.726562 117.03125 69.632812 118.371094 C 69.539062 119.707031 69.496094 121.050781 69.503906 122.390625 C 69.511719 123.734375 69.570312 125.074219 69.675781 126.410156 C 69.78125 127.75 69.941406 129.082031 70.148438 130.40625 C 70.355469 131.730469 70.609375 133.046875 70.914062 134.355469 C 71.21875 135.664062 71.574219 136.957031 71.976562 138.238281 C 72.375 139.515625 72.824219 140.78125 73.320312 142.027344 C 73.816406 143.273438 74.359375 144.5 74.945312 145.707031 C 75.535156 146.914062 76.164062 148.097656 76.839844 149.257812 C 77.519531 150.417969 78.234375 151.550781 78.996094 152.65625 Z M 193.605469 317.792969 " fill-opacity="1" fill-rule="nonzero"/></g></svg>